<?xml version="1.0" encoding="utf-8"?>
<!-- Generator: Adobe Illustrator 18.0.0, SVG Export Plug-In . SVG Version: 6.00 Build 0)  -->
<!DOCTYPE svg PUBLIC "-//W3C//DTD SVG 1.1//EN" "http://www.w3.org/Graphics/SVG/1.1/DTD/svg11.dtd">
<svg version="1.1" id="Layer_1" xmlns="http://www.w3.org/2000/svg" xmlns:xlink="http://www.w3.org/1999/xlink" x="0px" y="0px"
	 viewBox="0 0 1500 1500" enable-background="new 0 0 1500 1500" xml:space="preserve">
<g>
	<g>
		<g>
			<path fill="#1D39D6" d="M1230,1128.1c0-37.1-11.9-73.6-35.7-102.1c-105.5-126-263.9-206.1-441.1-206.1
				c-181.9,0-344.1,84.5-449.5,216.3c-22.5,28.2-33.8,63.7-33.8,99.7v55.4H1230V1128.1z"/>
		</g>
		<g>
			<path fill="#30323D" d="M753.4,842.4c-74.3,0-144.1-28.9-196.7-81.5c-52.5-52.5-81.5-122.4-81.5-196.7
				c0-74.3,28.9-144.1,81.5-196.7s122.4-81.5,196.7-81.5c74.3,0,144.1,28.9,196.7,81.5c52.5,52.5,81.5,122.4,81.5,196.7
				s-28.9,144.1-81.5,196.7C897.5,813.5,827.7,842.4,753.4,842.4z M753.4,331.1c-128.5,0-233.1,104.6-233.1,233.1
				s104.6,233.1,233.1,233.1s233.1-104.6,233.1-233.1S881.9,331.1,753.4,331.1z"/>
		</g>
		<g>
			<path fill="#30323D" d="M1230,1213.9H270c-12.4,0-22.5-10.1-22.5-22.5v-55.4c0-42.1,13.8-82.5,38.7-113.8
				C341,953.6,411.4,897,489.9,858.4c82.3-40.5,170.9-61,263.4-61c177.3,0,344.4,78.1,458.4,214.2c26.4,31.5,41,72.9,41,116.5v63.3
				C1252.5,1203.8,1242.5,1213.9,1230,1213.9z M292.5,1168.9h915.1v-40.8c0-33-10.8-64.1-30.5-87.6
				c-105.4-125.9-259.9-198.1-423.9-198.1c-168.9,0-326.3,75.8-431.9,207.9c-18.6,23.3-28.9,53.7-28.9,85.7V1168.9z"/>
		</g>
	</g>
	<g>
		<path fill="#30323D" d="M1448,1472.5H90.1c-34.5,0-62.6-28.1-62.6-62.6V52c0-13.5,11-24.5,24.5-24.5h1396
			c13.5,0,24.5,11,24.5,24.5v1396C1472.5,1461.5,1461.5,1472.5,1448,1472.5z M72.5,72.5v1337.4c0,9.7,7.9,17.6,17.6,17.6h1337.4
			V72.5H72.5z"/>
	</g>
</g>
</svg>
